REM DIRINDEX 1\2,1\3,1\4,1\5\6,1\5\7,1\8
REM DIRNAME cjc115,folder01,folder02,folder03,folder04,folder05,folder06,folder07
TITLE ""
FILE "105 【105】Unit6 (1189 shove_1200 crawl).mp3" MP3
  TRACK 01 AUDIO
    TITLE "0:"
    INDEX 01 00:00:00
  TRACK 02 AUDIO
    TITLE "2:cjc115_4090"
    INDEX 01 00:00:07
  TRACK 03 AUDIO
    TITLE "0:"
    INDEX 01 00:01:21
  TRACK 04 AUDIO
    TITLE "3:cjc115_4091"
    INDEX 01 00:01:26
  TRACK 05 AUDIO
    TITLE "0:"
    INDEX 01 00:03:41
  TRACK 06 AUDIO
    TITLE "4:cjc115_4092"
    INDEX 01 00:03:55
  TRACK 07 AUDIO
    TITLE "0:"
    INDEX 01 00:08:28
  TRACK 08 AUDIO
    TITLE "2:cjc115_4093"
    INDEX 01 00:09:40
  TRACK 09 AUDIO
    TITLE "0:"
    INDEX 01 00:10:55
  TRACK 10 AUDIO
    TITLE "3:cjc115_4094"
    INDEX 01 00:10:59
  TRACK 11 AUDIO
    TITLE "0:"
    INDEX 01 00:12:11
  TRACK 12 AUDIO
    TITLE "4:cjc115_4095"
    INDEX 01 00:12:16
  TRACK 13 AUDIO
    TITLE "0:"
    INDEX 01 00:15:74
  TRACK 14 AUDIO
    TITLE "2:cjc115_4096"
    INDEX 01 00:17:00
  TRACK 15 AUDIO
    TITLE "0:"
    INDEX 01 00:18:29
  TRACK 16 AUDIO
    TITLE "3:cjc115_4097"
    INDEX 01 00:18:39
  TRACK 17 AUDIO
    TITLE "0:"
    INDEX 01 00:21:43
  TRACK 18 AUDIO
    TITLE "4:cjc115_4098"
    INDEX 01 00:21:51
  TRACK 19 AUDIO
    TITLE "0:"
    INDEX 01 00:24:72
  TRACK 20 AUDIO
    TITLE "2:cjc115_4099"
    INDEX 01 00:26:07
  TRACK 21 AUDIO
    TITLE "0:"
    INDEX 01 00:27:14
  TRACK 22 AUDIO
    TITLE "3:cjc115_4100"
    INDEX 01 00:27:28
  TRACK 23 AUDIO
    TITLE "0:"
    INDEX 01 00:28:62
  TRACK 24 AUDIO
    TITLE "4:cjc115_4101"
    INDEX 01 00:29:03
  TRACK 25 AUDIO
    TITLE "0:"
    INDEX 01 00:32:58
  TRACK 26 AUDIO
    TITLE "2:cjc115_4102"
    INDEX 01 00:33:66
  TRACK 27 AUDIO
    TITLE "0:"
    INDEX 01 00:35:19
  TRACK 28 AUDIO
    TITLE "3:cjc115_4103"
    INDEX 01 00:35:23
  TRACK 29 AUDIO
    TITLE "0:"
    INDEX 01 00:36:38
  TRACK 30 AUDIO
    TITLE "4:cjc115_4104"
    INDEX 01 00:36:48
  TRACK 31 AUDIO
    TITLE "0:"
    INDEX 01 00:40:62
  TRACK 32 AUDIO
    TITLE "2:cjc115_4105"
    INDEX 01 00:41:65
  TRACK 33 AUDIO
    TITLE "0:"
    INDEX 01 00:43:07
  TRACK 34 AUDIO
    TITLE "3:cjc115_4106"
    INDEX 01 00:43:19
  TRACK 35 AUDIO
    TITLE "0:"
    INDEX 01 00:44:07
  TRACK 36 AUDIO
    TITLE "4:cjc115_4107"
    INDEX 01 00:44:18
  TRACK 37 AUDIO
    TITLE "0:"
    INDEX 01 00:47:05
  TRACK 38 AUDIO
    TITLE "2:cjc115_4108"
    INDEX 01 00:48:10
  TRACK 39 AUDIO
    TITLE "0:"
    INDEX 01 00:49:16
  TRACK 40 AUDIO
    TITLE "3:cjc115_4109"
    INDEX 01 00:49:25
  TRACK 41 AUDIO
    TITLE "0:"
    INDEX 01 00:50:68
  TRACK 42 AUDIO
    TITLE "4:cjc115_4110"
    INDEX 01 00:51:01
  TRACK 43 AUDIO
    TITLE "0:"
    INDEX 01 00:54:13
  TRACK 44 AUDIO
    TITLE "2:cjc115_4111"
    INDEX 01 00:55:20
  TRACK 45 AUDIO
    TITLE "0:"
    INDEX 01 00:56:31
  TRACK 46 AUDIO
    TITLE "3:cjc115_4112"
    INDEX 01 00:56:39
  TRACK 47 AUDIO
    TITLE "0:"
    INDEX 01 00:57:37
  TRACK 48 AUDIO
    TITLE "4:cjc115_4113"
    INDEX 01 00:57:46
  TRACK 49 AUDIO
    TITLE "0:"
    INDEX 01 01:01:05
  TRACK 50 AUDIO
    TITLE "2:cjc115_4114"
    INDEX 01 01:02:14
  TRACK 51 AUDIO
    TITLE "0:"
    INDEX 01 01:03:37
  TRACK 52 AUDIO
    TITLE "3:cjc115_4115"
    INDEX 01 01:03:47
  TRACK 53 AUDIO
    TITLE "0:"
    INDEX 01 01:06:28
  TRACK 54 AUDIO
    TITLE "4:cjc115_4116"
    INDEX 01 01:06:34
  TRACK 55 AUDIO
    TITLE "0:"
    INDEX 01 01:09:52
  TRACK 56 AUDIO
    TITLE "2:cjc115_4117"
    INDEX 01 01:10:59
  TRACK 57 AUDIO
    TITLE "0:"
    INDEX 01 01:11:70
  TRACK 58 AUDIO
    TITLE "3:cjc115_4118"
    INDEX 01 01:12:05
  TRACK 59 AUDIO
    TITLE "0:"
    INDEX 01 01:14:43
  TRACK 60 AUDIO
    TITLE "4:cjc115_4119"
    INDEX 01 01:14:47
  TRACK 61 AUDIO
    TITLE "0:"
    INDEX 01 01:18:74
  TRACK 62 AUDIO
    TITLE "2:cjc115_4120"
    INDEX 01 01:20:00
  TRACK 63 AUDIO
    TITLE "0:"
    INDEX 01 01:21:25
  TRACK 64 AUDIO
    TITLE "3:cjc115_4121"
    INDEX 01 01:21:35
  TRACK 65 AUDIO
    TITLE "0:"
    INDEX 01 01:23:15
  TRACK 66 AUDIO
    TITLE "4:cjc115_4122"
    INDEX 01 01:23:22
  TRACK 67 AUDIO
    TITLE "0:"
    INDEX 01 01:28:61
  TRACK 68 AUDIO
    TITLE "2:cjc115_4123"
    INDEX 01 01:29:68
  TRACK 69 AUDIO
    TITLE "0:"
    INDEX 01 01:31:02
  TRACK 70 AUDIO
    TITLE "3:cjc115_4124"
    INDEX 01 01:31:08
  TRACK 71 AUDIO
    TITLE "0:"
    INDEX 01 01:33:44
  TRACK 72 AUDIO
    TITLE "4:cjc115_4125"
    INDEX 01 01:33:52
  TRACK 73 AUDIO
    TITLE "0:"
    INDEX 01 01:38:43
